 <svg  version="1.0" xmlns="http://www.w3.org/2000/svg"  width="900.000000pt" height="900.000000pt" viewBox="0 0 900.000000 900.000000"  preserveAspectRatio="xMidYMid meet">  <g transform="translate(0.000000,900.000000) scale(0.100000,-0.100000)" fill="#1a3a99" stroke="none"> <path d="M4115 7080 c-82 -19 -193 -57 -255 -88 -62 -30 -174 -109 -215 -151 -38 -40 -41 -41 -105 -41 -36 -1 -83 -7 -105 -15 -22 -8 -47 -15 -56 -15 -9 0 -30 -7 -45 -15 -16 -8 -36 -15 -44 -15 -44 0 -295 -152 -405 -245 -144 -122 -347 -337 -457 -485 -112 -149 -119 -156 -189 -194 -41 -21 -98 -55 -127 -75 -29 -20 -62 -41 -73 -47 -110 -62 -225 -228 -251 -362 -21 -105 -10 -244 21 -275 21 -21 10 -44 -51 -114 -64 -71 -120 -137 -157 -184 -56 -72 -101 -213 -101 -317 0 -61 25 -191 39 -205 16 -16 14 -59 -6 -103 -23 -55 -24 -218 -2 -265 34 -70 38 -87 44 -214 4 -76 12 -140 20 -155 8 -15 15 -39 17 -54 3 -25 -4 -31 -76 -69 -81 -42 -210 -151 -221 -188 -7 -22 18 -67 41 -75 48 -14 47 -12 17 -52 -43 -57 -59 -91 -78 -167 -11 -44 -15 -88 -11 -118 5 -46 4 -50 -35 -88 -56 -55 -52 -85 16 -119 81 -40 154 -59 257 -66 l98 -6 -6 -51 c-5 -43 -3 -55 12 -68 20 -17 101 -46 144 -51 22 -3 25 -7 22 -38 -1 -19 -8 -51 -16 -70 -20 -53 -37 -102 -46 -135 -10 -37 -29 -91 -45 -130 -7 -16 -27 -68 -44 -115 -52 -137 -62 -163 -77 -198 -8 -18 -14 -42 -14 -53 0 -11 -13 -53 -29 -92 -52 -130 -64 -178 -65 -272 0 -79 3 -96 26 -140 39 -73 154 -195 184 -195 29 0 64 50 64 91 0 15 9 37 20 50 22 26 18 28 63 -31 7 -9 31 -31 54 -49 35 -28 50 -33 100 -35 56 -2 59 -3 86 -43 41 -62 141 -148 216 -186 36 -19 76 -40 88 -48 20 -12 25 -11 40 4 15 14 16 21 5 37 -10 17 -10 20 3 20 8 0 15 -4 15 -8 0 -4 12 -13 28 -20 15 -6 50 -25 77 -42 28 -16 57 -33 65 -36 149 -58 182 -66 272 -62 74 4 118 14 168 38 27 13 18 44 -16 51 -37 7 -57 21 -121 80 -58 54 -122 136 -139 179 -3 8 -12 29 -19 45 -16 36 -38 97 -54 147 -27 85 -51 279 -56 460 -3 104 -10 220 -15 256 -11 76 -13 186 -4 195 4 3 29 -11 58 -32 61 -45 142 -87 251 -130 44 -18 93 -39 108 -47 16 -8 36 -14 46 -14 9 0 26 -7 37 -15 10 -8 29 -15 41 -15 13 0 40 -6 60 -14 76 -27 150 -45 243 -60 251 -40 214 -35 545 -66 346 -31 896 26 1215 126 25 8 54 14 66 14 11 0 24 4 30 9 5 5 25 14 44 19 19 6 60 20 90 32 30 12 66 25 80 29 54 17 258 123 368 192 69 43 98 50 88 22 -4 -10 -11 -47 -16 -83 -9 -70 -23 -147 -46 -251 -8 -37 -14 -80 -14 -95 0 -16 -7 -65 -16 -109 -11 -57 -16 -147 -16 -315 -1 -201 1 -244 16 -295 29 -94 74 -181 104 -201 15 -10 33 -24 41 -31 7 -8 20 -13 28 -11 13 2 16 32 19 173 5 181 8 210 24 185 6 -8 10 -26 10 -40 0 -125 192 -346 360 -414 25 -10 61 -25 79 -33 19 -8 74 -17 123 -20 78 -5 88 -4 94 12 4 10 2 25 -4 34 -22 31 -52 104 -52 126 0 27 103 113 108 90 2 -8 -1 -22 -7 -33 -5 -10 -13 -52 -17 -93 -10 -118 12 -122 186 -30 208 110 408 269 499 397 13 19 30 34 37 34 14 0 34 -51 34 -88 0 -14 5 -51 12 -83 9 -47 9 -66 -4 -110 -30 -106 12 -130 85 -49 74 83 207 326 207 380 0 10 8 35 17 56 25 59 24 357 -1 434 -34 102 -77 215 -106 280 -52 117 -121 264 -135 292 -8 14 -15 32 -15 39 0 6 -12 37 -26 68 -15 30 -30 67 -35 81 -4 14 -17 50 -29 80 -12 30 -25 69 -29 85 -4 17 -13 40 -19 52 -7 12 -12 32 -12 45 0 12 -7 41 -16 65 -9 23 -14 49 -11 57 13 33 180 47 223 19 25 -16 27 -16 45 8 14 18 19 41 19 97 0 191 -48 345 -142 447 -51 56 -54 75 -14 75 35 0 84 20 90 36 8 21 -10 53 -52 91 -37 35 -147 103 -164 103 -5 0 -22 6 -36 14 -15 8 -35 17 -44 20 -26 8 -24 89 2 126 11 15 24 39 30 54 5 14 15 26 21 26 24 0 91 65 113 109 41 82 51 157 36 279 -7 59 -19 124 -27 146 -7 21 -13 50 -13 64 0 15 -6 44 -14 67 -8 22 -22 67 -31 100 -10 33 -22 69 -26 80 -10 23 -30 81 -64 180 -21 63 -29 84 -56 150 -4 11 -24 61 -45 110 -60 148 -94 219 -171 360 -18 33 -36 67 -40 75 -16 34 -93 160 -138 225 -160 232 -370 473 -525 600 -40 33 -105 88 -145 121 -63 55 -289 214 -303 214 -3 0 -13 6 -21 14 -9 7 -43 28 -76 46 -33 18 -78 43 -100 55 -85 49 -292 125 -338 125 -11 0 -43 6 -71 14 -107 30 -195 45 -296 51 -58 3 -118 9 -135 14 -16 5 -59 15 -95 21 -36 7 -99 19 -140 27 -47 10 -154 16 -285 19 -178 2 -222 0 -290 -16z m-765 -2167 c0 -21 -5 -56 -11 -78 -24 -98 -34 -327 -23 -525 6 -107 16 -208 22 -225 6 -16 20 -59 31 -95 33 -106 44 -131 90 -210 67 -113 141 -209 211 -274 120 -111 160 -111 160 0 0 35 4 64 10 64 5 0 33 -15 62 -33 78 -50 161 -86 244 -108 63 -16 102 -19 242 -17 198 4 198 3 123 100 -65 85 -118 198 -156 333 -9 33 -23 81 -31 106 -18 60 -18 89 1 89 8 0 15 -5 15 -11 0 -16 67 -114 131 -194 144 -177 337 -321 502 -374 129 -42 197 -51 396 -51 140 0 200 3 209 12 18 18 15 49 -9 107 -24 57 -21 71 13 49 13 -8 59 -29 103 -47 44 -18 94 -39 110 -46 49 -21 106 -42 167 -59 l56 -16 7 -88 c3 -48 11 -123 17 -167 15 -112 13 -655 -2 -725 -6 -30 -15 -86 -20 -123 -6 -49 -14 -75 -30 -92 -43 -46 -246 -179 -325 -214 -44 -19 -116 -51 -160 -72 -121 -56 -176 -79 -190 -79 -17 0 -113 -29 -153 -46 -18 -8 -43 -14 -55 -14 -12 0 -39 -6 -62 -14 -47 -16 -137 -35 -215 -46 -30 -4 -89 -12 -130 -18 -97 -14 -467 -31 -590 -28 -227 7 -483 36 -635 71 -55 13 -151 35 -212 50 -62 14 -123 29 -135 34 -202 78 -280 116 -407 198 -137 90 -254 219 -318 353 -58 120 -89 205 -104 280 -32 170 -39 203 -46 213 -6 11 -17 96 -29 230 l-6 68 28 -6 c16 -4 45 -11 64 -16 19 -5 71 -12 115 -15 76 -6 83 -5 109 18 l28 24 -26 65 c-37 94 -33 109 22 71 84 -58 216 -91 314 -78 29 4 71 9 93 12 76 9 85 13 85 37 -1 14 -13 29 -33 42 -56 36 -117 179 -117 277 l0 49 63 39 c34 22 67 40 74 40 7 0 27 6 45 14 18 8 49 21 70 30 20 9 43 16 52 16 28 0 97 32 93 44 -2 6 -25 11 -53 10 -81 0 -191 -37 -266 -88 -54 -36 -67 -38 -74 -12 -3 13 -1 41 5 62 5 22 12 66 16 99 3 33 12 78 19 100 7 22 21 67 31 100 30 99 55 174 64 193 5 9 16 35 24 57 35 92 60 151 68 159 5 6 9 17 9 25 0 21 190 401 201 401 5 0 9 -17 9 -37z m3887 -1344 c89 -21 273 -103 273 -121 0 -4 -24 -8 -54 -8 -43 0 -61 -5 -83 -24 -24 -21 -26 -26 -16 -49 7 -14 25 -34 40 -44 79 -50 141 -114 176 -185 20 -41 37 -86 37 -101 0 -16 4 -36 9 -45 5 -9 11 -46 12 -82 l4 -65 -80 -6 c-120 -10 -328 -51 -372 -74 -15 -8 -38 -15 -50 -15 -12 0 -25 -4 -28 -10 -3 -5 -24 -14 -47 -20 -38 -11 -45 -9 -113 26 -78 40 -105 40 -105 0 0 -24 68 -96 91 -96 5 0 7 -5 3 -11 -9 -14 -68 -5 -100 16 -49 32 -56 73 -44 255 8 121 8 189 0 255 -6 50 -15 126 -20 170 -5 44 -12 90 -16 103 -9 32 10 49 64 57 54 8 121 27 207 60 67 26 141 31 212 14z m-5181 -304 c6 -5 24 -19 38 -29 25 -18 26 -22 26 -127 0 -59 5 -130 10 -156 6 -26 14 -77 20 -113 10 -71 32 -177 48 -227 10 -31 8 -35 -25 -62 -20 -16 -63 -43 -97 -60 -52 -25 -79 -31 -190 -40 -145 -11 -172 -6 -155 32 6 12 25 29 42 38 42 21 66 62 51 86 -13 20 -46 21 -109 4 -93 -24 -297 -19 -347 9 -10 6 -25 10 -33 10 -23 0 -18 18 12 46 22 20 27 33 25 67 -1 23 -2 57 -2 75 -2 60 85 200 154 249 48 34 67 73 47 97 -7 8 -27 22 -46 31 -19 9 -35 23 -35 31 0 17 90 76 144 94 l38 12 52 -49 c69 -67 143 -112 198 -119 41 -6 47 -4 52 14 8 24 -1 82 -19 127 -22 55 -6 60 43 13 25 -23 51 -47 58 -53z"/> <path d="M4890 3151 c-5 -11 -10 -31 -10 -46 0 -14 -7 -42 -15 -62 -21 -49 -20 -157 1 -178 12 -12 19 -13 30 -4 8 6 14 17 14 24 0 7 18 27 39 44 34 27 46 31 103 31 56 0 71 -4 106 -30 23 -16 46 -39 52 -50 24 -45 60 -11 60 57 0 95 -126 203 -238 203 -32 0 -54 5 -62 15 -18 22 -67 19 -80 -4z"/> <path d="M3092 3128 c-7 -7 -12 -23 -12 -36 0 -13 -12 -39 -27 -59 -52 -68 -64 -132 -37 -186 16 -29 18 -30 28 -13 25 43 71 88 104 101 67 28 166 13 202 -30 16 -20 46 -19 54 1 10 25 7 104 -5 125 -5 11 -28 33 -51 49 -36 26 -50 30 -108 30 -43 0 -73 5 -86 15 -23 18 -46 19 -62 3z"/> <path d="M4306 2463 c-12 -12 -79 -34 -147 -48 -72 -15 -152 -4 -217 30 -51 27 -87 -2 -44 -36 82 -66 203 -86 302 -48 30 11 64 24 75 27 39 13 65 37 65 59 0 22 -19 31 -34 16z"/> </g> </svg> 