<?xml version="1.0" standalone="no"?>
<!DOCTYPE svg PUBLIC "-//W3C//DTD SVG 20010904//EN"
 "http://www.w3.org/TR/2001/REC-SVG-20010904/DTD/svg10.dtd">
<svg version="1.0" xmlns="http://www.w3.org/2000/svg"
 width="300.000000pt" height="300.000000pt" viewBox="0 0 300.000000 300.000000"
 preserveAspectRatio="xMidYMid meet">
<metadata>
Created by potrace 1.10, written by Peter Selinger 2001-2011
</metadata>
<g transform="translate(0.000000,300.000000) scale(0.100000,-0.100000)"
fill="#000000" stroke="none">
<path d="M1330 2350 c-30 -11 -70 -33 -90 -48 -19 -16 -53 -32 -75 -35 -22 -4
-69 -21 -105 -38 -62 -31 -142 -103 -276 -249 -22 -25 -62 -58 -90 -75 -75
-46 -116 -139 -91 -211 5 -15 -4 -33 -38 -73 -49 -58 -70 -116 -59 -164 4 -18
9 -63 10 -102 2 -81 16 -185 27 -201 4 -7 -5 -16 -22 -24 -16 -6 -42 -25 -57
-42 -25 -26 -27 -32 -13 -40 14 -10 14 -14 -3 -47 -11 -20 -17 -49 -15 -64 3
-20 -2 -31 -15 -38 -10 -5 -18 -14 -18 -19 0 -15 69 -40 110 -40 34 0 37 -2
33 -24 -4 -22 -1 -26 30 -31 l36 -7 -40 -112 c-93 -257 -96 -276 -48 -331 17
-19 35 -35 40 -35 9 0 12 7 25 49 3 9 10 5 25 -13 12 -15 30 -26 44 -26 14 0
29 -8 34 -19 10 -17 102 -81 117 -81 3 0 3 7 0 15 -4 12 6 9 37 -9 53 -30 96
-40 147 -31 40 7 56 25 22 25 -28 0 -81 61 -103 121 -14 37 -24 96 -30 184 -5
72 -12 138 -15 147 -4 13 8 9 44 -15 50 -34 186 -84 250 -93 21 -2 66 -8 102
-13 95 -13 304 -6 390 13 115 25 219 62 284 101 32 20 60 35 61 33 2 -2 -3
-32 -11 -68 -8 -36 -17 -118 -21 -182 -7 -129 7 -191 47 -216 19 -12 20 -10
21 70 1 75 2 79 10 39 16 -80 84 -143 173 -160 25 -5 46 -7 46 -4 0 2 -7 17
-15 32 -13 27 -13 30 10 51 l25 24 -6 -47 c-4 -26 -3 -47 1 -47 4 0 34 14 67
32 70 37 158 113 158 136 0 12 3 13 11 5 6 -6 12 -38 12 -72 2 -69 10 -72 48
-16 76 112 78 222 7 380 -51 112 -98 238 -98 261 0 13 10 15 48 12 44 -3 47
-1 49 22 2 46 -19 120 -43 149 -27 32 -30 43 -11 36 6 -3 19 -1 27 4 12 8 12
12 -3 29 -10 11 -35 27 -57 37 -49 22 -52 46 -9 86 44 41 52 82 35 165 -18 84
-66 223 -112 323 -125 272 -384 506 -614 554 -233 49 -378 57 -460 27z m225
-9 c29 -6 33 -9 14 -10 -44 -2 -146 -60 -186 -105 l-38 -43 -19 24 c-10 14
-36 33 -58 43 -42 19 -41 23 22 56 74 38 181 52 265 35z m293 -54 c213 -85
446 -317 547 -542 98 -219 130 -381 85 -437 -15 -20 -31 -28 -52 -28 -27 0
-29 2 -24 28 4 16 0 39 -9 56 -10 18 -13 41 -9 66 8 47 -13 88 -59 120 -32 22
-33 25 -29 75 5 57 -16 108 -70 178 -32 41 -116 103 -125 93 -4 -3 25 -37 63
-75 81 -81 117 -143 108 -190 -8 -36 -7 -36 -40 -15 -33 22 -39 13 -13 -17 38
-43 89 -128 95 -159 7 -33 -2 -108 -15 -129 -16 -26 -48 4 -54 52 -9 67 -65
233 -104 311 -33 65 -102 176 -109 176 -2 0 16 -37 41 -83 64 -119 171 -408
158 -430 -2 -4 -24 5 -49 19 -57 34 -66 26 -17 -15 51 -42 135 -73 204 -75 31
0 55 -5 52 -9 -14 -23 -217 -95 -293 -104 -84 -10 -278 52 -301 97 -4 8 -31
69 -59 135 -49 114 -146 285 -162 285 -12 0 -11 -4 34 -76 36 -60 158 -304
158 -316 0 -3 -24 3 -52 13 -58 20 -98 24 -98 10 0 -5 18 -11 40 -15 79 -13
115 -34 138 -81 l22 -45 -53 0 c-117 0 -213 50 -289 152 -61 80 -90 141 -96
201 -3 32 -9 47 -19 47 -11 0 -13 -8 -8 -32 3 -18 10 -55 15 -83 27 -144 43
-204 65 -244 l25 -44 -61 6 c-44 4 -75 14 -111 36 -27 17 -51 31 -54 31 -2 0
-4 -14 -4 -32 0 -31 0 -31 -21 -12 -117 106 -136 397 -41 624 24 54 27 70 15
70 -8 0 -26 -26 -40 -57 -14 -31 -46 -90 -70 -131 -93 -156 -146 -300 -159
-427 -5 -50 -3 -70 15 -110 11 -26 21 -49 21 -50 0 -1 -21 1 -46 6 -45 9 -104
42 -104 60 0 5 -5 9 -11 9 -11 0 -10 -19 7 -85 7 -27 6 -28 -29 -22 -124 20
-207 184 -179 353 6 38 10 70 7 72 -12 12 -28 -54 -33 -130 -4 -70 -1 -101 16
-155 40 -133 36 -168 -12 -95 -38 56 -50 127 -36 214 14 94 89 321 140 426 22
46 40 89 40 95 -1 21 -31 -26 -70 -106 -32 -67 -38 -75 -43 -55 -22 78 11 145
101 205 36 24 87 72 121 116 67 83 142 150 216 193 43 25 61 29 121 29 66 0
75 -3 112 -32 23 -18 45 -33 50 -33 4 0 29 20 55 45 86 82 156 106 293 101 67
-3 108 -11 152 -29z m-724 -647 c-22 -82 -19 -242 6 -314 22 -64 76 -145 115
-170 34 -22 38 -20 33 14 -5 35 -4 36 30 12 42 -29 90 -42 158 -42 l64 0 -30
47 c-27 43 -74 172 -66 180 2 2 15 -16 29 -39 34 -59 117 -135 175 -161 33
-15 74 -22 141 -25 102 -5 100 -6 76 50 -6 15 0 14 36 -6 24 -13 61 -29 81
-35 l36 -12 8 -76 c3 -42 4 -129 2 -194 -5 -110 -7 -120 -29 -138 -67 -56
-240 -126 -369 -150 -210 -38 -499 -7 -652 70 -123 62 -177 137 -209 294 -25
122 -25 127 7 115 29 -11 77 -13 87 -4 3 4 0 22 -8 41 l-14 34 31 -22 c23 -17
45 -22 89 -22 33 0 61 2 64 5 4 3 -5 23 -20 43 -14 21 -25 50 -25 65 0 23 7
31 49 49 27 11 56 21 65 21 8 0 18 5 21 10 15 24 -85 0 -118 -29 -18 -15 -19
-14 -12 34 4 28 18 84 32 125 25 75 123 293 129 287 2 -2 -3 -27 -12 -57z
m-513 -31 c-11 -24 -30 -79 -42 -123 -20 -68 -24 -75 -32 -55 -17 45 0 107 45
169 24 31 44 56 46 55 1 -1 -6 -22 -17 -46z m1751 -151 c6 -21 8 -41 5 -45 -8
-8 -5 -12 -42 62 -41 84 -41 83 -6 50 17 -16 37 -46 43 -67z m4 -93 c24 -58
19 -75 -20 -75 l-35 0 15 35 c7 19 14 44 14 55 0 30 9 24 26 -15z m-1825 -7
c-3 -21 -6 -26 -9 -15 -3 17 3 47 11 47 2 0 1 -15 -2 -32z m1927 -183 c50 -23
71 -43 33 -30 -10 3 -26 2 -36 -1 -14 -6 -11 -12 23 -43 25 -23 44 -52 51 -76
19 -69 17 -72 -53 -84 -35 -6 -82 -17 -103 -25 -33 -12 -43 -12 -67 1 -40 21
-47 6 -11 -24 29 -24 29 -24 5 -18 -41 12 -48 29 -47 133 0 53 -3 112 -7 130
-7 29 -5 32 16 33 13 0 39 7 58 14 51 20 79 18 138 -10z m-231 -172 c-4 -113
-14 -197 -33 -293 -34 -169 -38 -352 -10 -442 9 -32 22 -60 27 -63 5 -4 9 -11
9 -16 0 -13 -69 23 -109 57 -43 36 -54 60 -61 123 -3 30 -10 56 -16 58 -14 5
-34 -69 -35 -129 -1 -36 -2 -39 -9 -18 -18 55 -10 215 17 360 22 121 27 174
27 320 l1 175 56 -3 c34 -2 68 2 90 11 19 9 38 16 43 16 5 1 6 -66 3 -156z
m-1519 -11 c7 -48 14 -98 18 -112 7 -33 -30 -55 -108 -64 -61 -8 -76 3 -38 26
31 20 26 40 -7 31 -34 -9 -103 -9 -127 0 -13 5 -15 11 -8 20 5 6 10 24 10 39
-1 30 35 93 57 102 21 8 19 24 -5 31 -25 8 -18 20 22 41 28 15 31 14 44 -4 14
-20 71 -48 80 -39 3 3 1 22 -5 43 l-10 37 32 -31 c29 -29 34 -41 45 -120z
m1746 -136 c9 -30 16 -57 16 -61 0 -3 24 -59 54 -123 81 -176 89 -252 40 -356
l-18 -36 -18 60 c-10 33 -22 60 -26 60 -4 0 -14 -13 -23 -29 -18 -31 -124
-123 -170 -147 -29 -15 -31 -14 -26 3 25 87 15 108 -28 63 -16 -17 -32 -30
-36 -30 -10 0 -29 118 -29 182 0 31 9 116 20 190 12 73 24 157 27 186 5 44 9
52 22 46 37 -15 65 -16 75 -2 10 12 78 46 98 47 4 1 14 -23 22 -53z m-1696
-53 c5 -16 25 -49 44 -74 l35 -45 6 -150 c6 -175 22 -237 75 -296 l37 -41 -30
7 c-40 9 -105 43 -131 68 -24 21 -40 10 -30 -20 4 -9 -11 2 -33 24 -60 63 -71
113 -71 331 l0 183 25 6 c13 3 29 12 36 20 17 21 26 17 37 -13z m-126 -196
c-4 -158 1 -205 23 -261 7 -16 5 -17 -12 -8 -11 6 -26 25 -33 42 -16 38 -35
38 -52 0 -15 -36 -23 -37 -39 -9 -17 32 -4 100 39 214 21 55 44 121 51 148 8
26 16 47 20 47 3 0 4 -78 3 -173z"/>
<path d="M1540 2276 c-47 -12 -64 -22 -120 -69 -53 -45 -26 -43 46 4 61 39 74
44 128 44 133 0 280 -93 416 -263 36 -45 69 -82 73 -82 27 0 -132 192 -215
261 -67 56 -142 94 -204 104 -22 3 -48 8 -59 10 -11 2 -40 -2 -65 -9z"/>
<path d="M1519 2202 l-22 -19 42 -7 c47 -7 148 -54 199 -93 18 -14 35 -23 37
-21 6 6 -118 128 -146 144 -34 19 -83 17 -110 -4z m110 -16 c15 -8 34 -23 42
-32 13 -16 12 -16 -13 0 -15 10 -47 24 -70 31 -37 12 -39 14 -15 14 15 1 40
-5 56 -13z"/>
<path d="M1164 2180 c-44 -22 -101 -74 -137 -125 l-22 -30 31 22 c17 12 36 28
42 36 10 12 120 57 195 81 31 10 13 31 -29 34 -24 1 -55 -5 -80 -18z m57 -17
c-29 -7 -61 -17 -71 -23 -10 -5 -22 -10 -27 -10 -12 1 47 32 87 46 19 6 41 9
48 6 8 -3 -8 -11 -37 -19z"/>
<path d="M1626 1029 c-10 -53 -7 -78 12 -88 27 -14 102 -21 102 -9 0 6 -6 8
-14 5 -21 -8 -86 12 -86 26 0 7 9 18 20 24 23 15 67 2 76 -22 11 -27 25 -16
22 17 -4 37 -36 63 -89 72 -35 6 -37 5 -43 -25z"/>
<path d="M1016 1010 c-17 -35 -17 -39 -1 -66 9 -16 14 -20 10 -10 -13 44 59
74 97 39 17 -15 18 -14 18 15 0 35 -15 46 -70 55 -33 5 -37 2 -54 -33z"/>
<path d="M1073 938 c-18 -6 -33 -14 -33 -18 0 -12 59 2 71 16 13 16 7 16 -38
2z"/>
<path d="M1295 820 c-4 -6 10 -17 31 -26 43 -18 101 -7 125 23 12 15 12 16 -6
9 -64 -26 -103 -27 -132 -4 -7 5 -14 5 -18 -2z"/>
<path d="M2345 1140 c28 -12 37 -12 30 0 -3 6 -16 10 -28 9 -21 0 -21 -1 -2
-9z"/>
<path d="M2352 1046 c21 -20 48 -36 60 -36 23 1 23 1 3 16 -11 9 -38 24 -60
35 l-40 20 37 -35z"/>
<path d="M2431 1037 c2 -1 13 -9 24 -17 19 -14 19 -14 6 3 -7 9 -18 17 -24 17
-6 0 -8 -1 -6 -3z"/>
<path d="M530 1010 c-9 -6 -10 -10 -3 -10 6 0 15 5 18 10 8 12 4 12 -15 0z"/>
<path d="M500 940 c-13 -8 -12 -10 3 -10 9 0 17 5 17 10 0 12 -1 12 -20 0z"/>
</g>
</svg>
